<?xml version="1.0" encoding="UTF-8" standalone="no"?>
<!DOCTYPE svg PUBLIC "-//W3C//DTD SVG 1.1//EN"
 "http://www.w3.org/Graphics/SVG/1.1/DTD/svg11.dtd">
<!-- Generated by graphviz version 2.40.1 (20161225.0304)
 -->
<!-- Title: DFG for&#39;fir&#39; function Pages: 1 -->
<svg width="347pt" height="483pt"
 viewBox="0.00 0.00 347.23 483.00" xmlns="http://www.w3.org/2000/svg" xmlns:xlink="http://www.w3.org/1999/xlink">
<g id="graph0" class="graph" transform="scale(1 1) rotate(0) translate(4 479)">
<title>DFG for&#39;fir&#39; function</title>
<polygon fill="#ffffff" stroke="transparent" points="-4,4 -4,-479 343.226,-479 343.226,4 -4,4"/>
<!-- Node0phi -->
<g id="node1" class="node">
<title>Node0phi</title>
<polygon fill="none" stroke="#000000" points="211.395,-438.5 211.395,-474.5 265.395,-474.5 265.395,-438.5 211.395,-438.5"/>
<text text-anchor="middle" x="238.252" y="-452.3" font-family="Times,serif" font-size="14.00" fill="#000000">(0) phi</text>
</g>
<!-- Node2getelementptr -->
<g id="node3" class="node">
<title>Node2getelementptr</title>
<polygon fill="none" stroke="#000000" points="0,-365.5 0,-401.5 112.79,-401.5 112.79,-365.5 0,-365.5"/>
<text text-anchor="middle" x="56.395" y="-379.3" font-family="Times,serif" font-size="14.00" fill="#000000">(2) getelementptr</text>
</g>
<!-- Node0phi&#45;&gt;Node2getelementptr -->
<g id="edge1" class="edge">
<title>Node0phi&#45;&gt;Node2getelementptr</title>
<path fill="none" stroke="#ff0000" d="M211.1478,-445.5712C184.7934,-435.0005 144.1026,-418.6794 111.0595,-405.4259"/>
<polygon fill="#ff0000" stroke="#ff0000" points="112.1032,-402.0735 101.5189,-401.5992 109.4972,-408.5703 112.1032,-402.0735"/>
</g>
<!-- Node4getelementptr -->
<g id="node5" class="node">
<title>Node4getelementptr</title>
<polygon fill="none" stroke="#000000" points="131,-365.5 131,-401.5 243.79,-401.5 243.79,-365.5 131,-365.5"/>
<text text-anchor="middle" x="187.395" y="-379.3" font-family="Times,serif" font-size="14.00" fill="#000000">(4) getelementptr</text>
</g>
<!-- Node0phi&#45;&gt;Node4getelementptr -->
<g id="edge3" class="edge">
<title>Node0phi&#45;&gt;Node4getelementptr</title>
<path fill="none" stroke="#ff0000" d="M225.7883,-438.4551C219.781,-429.8564 212.4782,-419.4034 205.861,-409.9316"/>
<polygon fill="#ff0000" stroke="#ff0000" points="208.6298,-407.7835 200.0335,-401.5904 202.8915,-411.7925 208.6298,-407.7835"/>
</g>
<!-- Node8add -->
<g id="node9" class="node">
<title>Node8add</title>
<polygon fill="none" stroke="#000000" points="261.376,-365.5 261.376,-401.5 317.4141,-401.5 317.4141,-365.5 261.376,-365.5"/>
<text text-anchor="middle" x="289.395" y="-379.3" font-family="Times,serif" font-size="14.00" fill="#000000">(8) add</text>
</g>
<!-- Node0phi&#45;&gt;Node8add -->
<g id="edge9" class="edge">
<title>Node0phi&#45;&gt;Node8add</title>
<path fill="none" stroke="#ff0000" d="M251.0018,-438.4551C257.0091,-429.8564 264.3118,-419.4034 270.9291,-409.9316"/>
<polygon fill="#ff0000" stroke="#ff0000" points="273.8986,-411.7925 276.7565,-401.5904 268.1603,-407.7835 273.8986,-411.7925"/>
</g>
<!-- Node1phi -->
<g id="node2" class="node">
<title>Node1phi</title>
<polygon fill="none" stroke="#000000" points="173.395,-.5 173.395,-36.5 227.395,-36.5 227.395,-.5 173.395,-.5"/>
<text text-anchor="middle" x="200.252" y="-14.3" font-family="Times,serif" font-size="14.00" fill="#000000">(1) phi</text>
</g>
<!-- Node7fadd -->
<g id="node8" class="node">
<title>Node7fadd</title>
<polygon fill="none" stroke="#000000" points="143.0449,-146.5 143.0449,-182.5 203.7451,-182.5 203.7451,-146.5 143.0449,-146.5"/>
<text text-anchor="middle" x="173.395" y="-160.3" font-family="Times,serif" font-size="14.00" fill="#000000">(7) fadd</text>
</g>
<!-- Node1phi&#45;&gt;Node7fadd -->
<g id="edge7" class="edge">
<title>Node1phi&#45;&gt;Node7fadd</title>
<path fill="none" stroke="#ff0000" d="M196.9876,-36.9251C192.357,-61.9651 184.0339,-106.9714 178.6134,-136.2818"/>
<polygon fill="#ff0000" stroke="#ff0000" points="175.1369,-135.8344 176.76,-146.3042 182.0202,-137.1074 175.1369,-135.8344"/>
</g>
<!-- Node3load -->
<g id="node4" class="node">
<title>Node3load</title>
<polygon fill="none" stroke="#000000" points="43.4312,-292.5 43.4312,-328.5 103.3589,-328.5 103.3589,-292.5 43.4312,-292.5"/>
<text text-anchor="middle" x="73.395" y="-306.3" font-family="Times,serif" font-size="14.00" fill="#000000">(3) load</text>
</g>
<!-- Node2getelementptr&#45;&gt;Node3load -->
<g id="edge2" class="edge">
<title>Node2getelementptr&#45;&gt;Node3load</title>
<path fill="none" stroke="#ff0000" d="M60.5973,-365.4551C62.4975,-357.2951 64.7867,-347.4652 66.9004,-338.3887"/>
<polygon fill="#ff0000" stroke="#ff0000" points="70.3228,-339.1236 69.1822,-328.5904 63.5053,-337.5359 70.3228,-339.1236"/>
</g>
<!-- Node6fmul -->
<g id="node7" class="node">
<title>Node6fmul</title>
<polygon fill="none" stroke="#000000" points="136.2622,-219.5 136.2622,-255.5 198.5278,-255.5 198.5278,-219.5 136.2622,-219.5"/>
<text text-anchor="middle" x="167.395" y="-233.3" font-family="Times,serif" font-size="14.00" fill="#000000">(6) fmul</text>
</g>
<!-- Node3load&#45;&gt;Node6fmul -->
<g id="edge5" class="edge">
<title>Node3load&#45;&gt;Node6fmul</title>
<path fill="none" stroke="#ff0000" d="M96.631,-292.4551C108.4941,-283.2422 123.0983,-271.9006 135.9526,-261.918"/>
<polygon fill="#ff0000" stroke="#ff0000" points="138.3493,-264.4883 144.1006,-255.5904 134.0558,-258.9597 138.3493,-264.4883"/>
</g>
<!-- Node5load -->
<g id="node6" class="node">
<title>Node5load</title>
<polygon fill="none" stroke="#000000" points="137.4312,-292.5 137.4312,-328.5 197.3589,-328.5 197.3589,-292.5 137.4312,-292.5"/>
<text text-anchor="middle" x="167.395" y="-306.3" font-family="Times,serif" font-size="14.00" fill="#000000">(5) load</text>
</g>
<!-- Node4getelementptr&#45;&gt;Node5load -->
<g id="edge4" class="edge">
<title>Node4getelementptr&#45;&gt;Node5load</title>
<path fill="none" stroke="#ff0000" d="M182.4512,-365.4551C180.2156,-357.2951 177.5225,-347.4652 175.0358,-338.3887"/>
<polygon fill="#ff0000" stroke="#ff0000" points="178.3693,-337.3101 172.3513,-328.5904 171.6181,-339.1598 178.3693,-337.3101"/>
</g>
<!-- Node5load&#45;&gt;Node6fmul -->
<g id="edge6" class="edge">
<title>Node5load&#45;&gt;Node6fmul</title>
<path fill="none" stroke="#ff0000" d="M167.395,-292.4551C167.395,-284.3828 167.395,-274.6764 167.395,-265.6817"/>
<polygon fill="#ff0000" stroke="#ff0000" points="170.8951,-265.5903 167.395,-255.5904 163.8951,-265.5904 170.8951,-265.5903"/>
</g>
<!-- Node6fmul&#45;&gt;Node7fadd -->
<g id="edge8" class="edge">
<title>Node6fmul&#45;&gt;Node7fadd</title>
<path fill="none" stroke="#ff0000" d="M168.8782,-219.4551C169.5416,-211.3828 170.3394,-201.6764 171.0787,-192.6817"/>
<polygon fill="#ff0000" stroke="#ff0000" points="174.5771,-192.8435 171.9081,-182.5904 167.6007,-192.27 174.5771,-192.8435"/>
</g>
<!-- Node11br -->
<g id="node12" class="node">
<title>Node11br</title>
<polygon fill="none" stroke="#000000" points="201.395,-73.5 201.395,-109.5 255.395,-109.5 255.395,-73.5 201.395,-73.5"/>
<text text-anchor="middle" x="228.3818" y="-87.3" font-family="Times,serif" font-size="14.00" fill="#000000">(11) br</text>
</g>
<!-- Node7fadd&#45;&gt;Node11br -->
<g id="edge15" class="edge">
<title>Node7fadd&#45;&gt;Node11br</title>
<path fill="none" stroke="#ff0000" d="M186.9905,-146.4551C193.5351,-137.7686 201.5054,-127.1898 208.699,-117.642"/>
<polygon fill="#ff0000" stroke="#ff0000" points="211.5432,-119.6834 214.7653,-109.5904 205.9524,-115.4711 211.5432,-119.6834"/>
</g>
<!-- Node9icmp -->
<g id="node10" class="node">
<title>Node9icmp</title>
<polygon fill="none" stroke="#000000" points="215.4863,-292.5 215.4863,-328.5 279.3037,-328.5 279.3037,-292.5 215.4863,-292.5"/>
<text text-anchor="middle" x="247.395" y="-306.3" font-family="Times,serif" font-size="14.00" fill="#000000">(9) icmp</text>
</g>
<!-- Node8add&#45;&gt;Node9icmp -->
<g id="edge10" class="edge">
<title>Node8add&#45;&gt;Node9icmp</title>
<path fill="none" stroke="#ff0000" d="M279.013,-365.4551C274.1668,-357.0319 268.2968,-346.8292 262.9366,-337.5128"/>
<polygon fill="#ff0000" stroke="#ff0000" points="265.8239,-335.5127 257.8032,-328.5904 259.7564,-339.0036 265.8239,-335.5127"/>
</g>
<!-- Node10br -->
<g id="node11" class="node">
<title>Node10br</title>
<polygon fill="none" stroke="#000000" points="280.1519,-219.5 280.1519,-255.5 334.6382,-255.5 334.6382,-219.5 280.1519,-219.5"/>
<text text-anchor="middle" x="307.395" y="-233.3" font-family="Times,serif" font-size="14.00" fill="#000000">(10) br</text>
</g>
<!-- Node8add&#45;&gt;Node10br -->
<g id="edge13" class="edge">
<title>Node8add&#45;&gt;Node10br</title>
<path fill="none" stroke="#ff0000" d="M291.6383,-365.3042C294.7103,-340.3868 300.2574,-295.3938 303.8828,-265.9877"/>
<polygon fill="#ff0000" stroke="#ff0000" points="307.3734,-266.2783 305.1234,-255.9251 300.426,-265.4217 307.3734,-266.2783"/>
</g>
<!-- Node9icmp&#45;&gt;Node10br -->
<g id="edge11" class="edge">
<title>Node9icmp&#45;&gt;Node10br</title>
<path fill="none" stroke="#ff0000" d="M262.2265,-292.4551C269.4381,-283.6809 278.2367,-272.9759 286.146,-263.353"/>
<polygon fill="#ff0000" stroke="#ff0000" points="288.8804,-265.5382 292.5262,-255.5904 283.4726,-261.0934 288.8804,-265.5382"/>
</g>
<!-- Node9icmp&#45;&gt;Node11br -->
<g id="edge12" class="edge">
<title>Node9icmp&#45;&gt;Node11br</title>
<path fill="none" stroke="#ff0000" d="M245.8078,-292.2049C242.4885,-253.9458 234.7945,-165.2623 230.8394,-119.6742"/>
<polygon fill="#ff0000" stroke="#ff0000" points="234.3157,-119.2491 229.9644,-109.589 227.3419,-119.8542 234.3157,-119.2491"/>
</g>
<!-- Node10br&#45;&gt;Node0phi -->
<g id="edge14" class="edge">
<title>Node10br&#45;&gt;Node0phi</title>
<path fill="none" stroke="#ff0000" d="M316.0507,-255.6506C329.8772,-287.4902 352.8324,-354.53 326.395,-402 315.3995,-421.7431 293.9719,-435.2406 275.0145,-443.8644"/>
<polygon fill="#ff0000" stroke="#ff0000" points="273.5185,-440.697 265.6796,-447.8246 276.2524,-447.1411 273.5185,-440.697"/>
</g>
<!-- Node11br&#45;&gt;Node1phi -->
<g id="edge16" class="edge">
<title>Node11br&#45;&gt;Node1phi</title>
<path fill="none" stroke="#ff0000" d="M221.4737,-73.4551C218.3102,-65.2074 214.4923,-55.2536 210.9798,-46.0962"/>
<polygon fill="#ff0000" stroke="#ff0000" points="214.1829,-44.6737 207.3338,-36.5904 207.6472,-47.1806 214.1829,-44.6737"/>
</g>
</g>
</svg>
